<svg width="250" height="80" viewBox="0 0 250 80" fill="none" xmlns="http://www.w3.org/2000/svg">
<path d="M74.928 31.168C74.0413 31.168 73.276 30.9533 72.632 30.524C71.988 30.0947 71.4933 29.502 71.148 28.746C70.812 27.9807 70.644 27.0987 70.644 26.1C70.644 25.1013 70.812 24.224 71.148 23.468C71.4933 22.7027 71.9833 22.1053 72.618 21.676C73.262 21.2467 74.032 21.032 74.928 21.032C75.824 21.032 76.5893 21.2467 77.224 21.676C77.868 22.1053 78.358 22.7027 78.694 23.468C79.0393 24.224 79.212 25.1013 79.212 26.1C79.212 27.0987 79.0393 27.9807 78.694 28.746C78.358 29.502 77.868 30.0947 77.224 30.524C76.5893 30.9533 75.824 31.168 74.928 31.168ZM74.928 29.474C75.3947 29.474 75.8053 29.3387 76.16 29.068C76.5147 28.788 76.79 28.396 76.986 27.892C77.1913 27.388 77.294 26.7907 77.294 26.1C77.294 25.4 77.1913 24.8027 76.986 24.308C76.79 23.804 76.5147 23.4167 76.16 23.146C75.8053 22.8753 75.3947 22.74 74.928 22.74C74.4613 22.74 74.0507 22.8753 73.696 23.146C73.3413 23.4167 73.0613 23.804 72.856 24.308C72.66 24.8027 72.562 25.4 72.562 26.1C72.562 26.7907 72.66 27.388 72.856 27.892C73.0613 28.396 73.3413 28.788 73.696 29.068C74.0507 29.3387 74.4613 29.474 74.928 29.474ZM81.0749 31.07C80.7202 31.07 80.4355 30.9673 80.2209 30.762C80.0062 30.5473 79.8989 30.286 79.8989 29.978C79.8989 29.67 80.0062 29.4133 80.2209 29.208C80.4355 28.9933 80.7202 28.886 81.0749 28.886C81.4109 28.886 81.6862 28.9933 81.9009 29.208C82.1155 29.4133 82.2229 29.67 82.2229 29.978C82.2229 30.286 82.1155 30.5473 81.9009 30.762C81.6862 30.9673 81.4109 31.07 81.0749 31.07ZM87.0242 31.168C86.3896 31.168 85.8062 31.0513 85.2742 30.818C84.7422 30.5847 84.3176 30.23 84.0002 29.754C83.6829 29.278 83.5149 28.676 83.4962 27.948H85.3442C85.3536 28.256 85.4236 28.536 85.5542 28.788C85.6849 29.0307 85.8762 29.2267 86.1282 29.376C86.3802 29.516 86.6789 29.586 87.0242 29.586C87.3509 29.586 87.6309 29.5207 87.8642 29.39C88.0976 29.2593 88.2749 29.0867 88.3962 28.872C88.5176 28.6573 88.5782 28.41 88.5782 28.13C88.5782 27.8033 88.4942 27.5327 88.3262 27.318C88.1676 27.094 87.9436 26.926 87.6542 26.814C87.3742 26.702 87.0522 26.646 86.6882 26.646H85.9602V25.092H86.6882C87.1456 25.092 87.5282 24.9847 87.8362 24.77C88.1536 24.5553 88.3122 24.2333 88.3122 23.804C88.3122 23.4493 88.1956 23.1647 87.9622 22.95C87.7382 22.7353 87.4209 22.628 87.0102 22.628C86.5622 22.628 86.2122 22.7587 85.9602 23.02C85.7082 23.2813 85.5682 23.6033 85.5402 23.986H83.6922C83.7202 23.37 83.8742 22.8427 84.1542 22.404C84.4436 21.956 84.8309 21.6153 85.3162 21.382C85.8016 21.1487 86.3662 21.032 87.0102 21.032C87.6916 21.032 88.2656 21.1533 88.7322 21.396C89.2082 21.6293 89.5676 21.9467 89.8102 22.348C90.0529 22.7493 90.1742 23.1833 90.1742 23.65C90.1742 24.0327 90.0996 24.3733 89.9502 24.672C89.8102 24.9707 89.6189 25.218 89.3762 25.414C89.1336 25.61 88.8676 25.75 88.5782 25.834C88.9422 25.9087 89.2596 26.0533 89.5302 26.268C89.8102 26.4733 90.0249 26.7393 90.1742 27.066C90.3329 27.3927 90.4122 27.7707 90.4122 28.2C90.4122 28.732 90.2816 29.2267 90.0202 29.684C89.7682 30.132 89.3856 30.4913 88.8722 30.762C88.3682 31.0327 87.7522 31.168 87.0242 31.168ZM95.2218 34.248C94.5498 34.248 93.9618 34.164 93.4578 33.996C92.9538 33.8373 92.5618 33.59 92.2818 33.254C92.0111 32.9273 91.8758 32.5213 91.8758 32.036C91.8758 31.7093 91.9598 31.4013 92.1278 31.112C92.2958 30.8227 92.5384 30.5613 92.8558 30.328C93.1824 30.0853 93.5884 29.88 94.0738 29.712L94.7878 30.636C94.3584 30.776 94.0458 30.9487 93.8498 31.154C93.6631 31.3687 93.5698 31.5973 93.5698 31.84C93.5698 32.0547 93.6398 32.2367 93.7798 32.386C93.9291 32.5353 94.1251 32.6427 94.3678 32.708C94.6198 32.7827 94.8998 32.82 95.2078 32.82C95.5064 32.82 95.7631 32.7827 95.9778 32.708C96.2018 32.6333 96.3744 32.5213 96.4958 32.372C96.6264 32.232 96.6918 32.064 96.6918 31.868C96.6918 31.616 96.6031 31.4107 96.4258 31.252C96.2484 31.0933 95.8938 30.9953 95.3618 30.958C94.8858 30.9207 94.4611 30.8693 94.0878 30.804C93.7238 30.7293 93.4018 30.6453 93.1218 30.552C92.8418 30.4493 92.6038 30.3373 92.4078 30.216C92.2211 30.0947 92.0671 29.9733 91.9458 29.852V29.53L93.4438 27.92L94.8018 28.354L93.0378 30.09L93.5698 29.166C93.6724 29.222 93.7704 29.278 93.8638 29.334C93.9664 29.3807 94.0924 29.4273 94.2418 29.474C94.3911 29.5113 94.5871 29.5487 94.8298 29.586C95.0724 29.6233 95.3804 29.656 95.7538 29.684C96.3698 29.74 96.8738 29.8567 97.2658 30.034C97.6671 30.2113 97.9611 30.4493 98.1478 30.748C98.3344 31.0373 98.4278 31.3967 98.4278 31.826C98.4278 32.246 98.3111 32.638 98.0778 33.002C97.8538 33.3753 97.5038 33.674 97.0278 33.898C96.5518 34.1313 95.9498 34.248 95.2218 34.248ZM95.2218 28.914C94.6338 28.914 94.1251 28.802 93.6958 28.578C93.2758 28.3447 92.9491 28.0367 92.7158 27.654C92.4918 27.262 92.3798 26.828 92.3798 26.352C92.3798 25.876 92.4918 25.4467 92.7158 25.064C92.9491 24.672 93.2758 24.3593 93.6958 24.126C94.1251 23.8927 94.6338 23.776 95.2218 23.776C95.8191 23.776 96.3278 23.8927 96.7478 24.126C97.1771 24.3593 97.5038 24.672 97.7278 25.064C97.9518 25.4467 98.0638 25.876 98.0638 26.352C98.0638 26.828 97.9518 27.262 97.7278 27.654C97.5038 28.0367 97.1771 28.3447 96.7478 28.578C96.3278 28.802 95.8191 28.914 95.2218 28.914ZM95.2218 27.472C95.5858 27.472 95.8798 27.3787 96.1038 27.192C96.3278 27.0053 96.4398 26.73 96.4398 26.366C96.4398 26.002 96.3278 25.7267 96.1038 25.54C95.8798 25.344 95.5858 25.246 95.2218 25.246C94.8671 25.246 94.5731 25.344 94.3398 25.54C94.1158 25.7267 94.0038 26.002 94.0038 26.366C94.0038 26.73 94.1158 27.0053 94.3398 27.192C94.5731 27.3787 94.8671 27.472 95.2218 27.472ZM96.3978 25.288L96.0898 23.944H98.9878V25.064L96.3978 25.288ZM106.955 31.168C106.311 31.168 105.732 31.0093 105.219 30.692C104.715 30.3747 104.318 29.936 104.029 29.376C103.739 28.816 103.595 28.186 103.595 27.486C103.595 26.7673 103.739 26.1327 104.029 25.582C104.327 25.022 104.733 24.5833 105.247 24.266C105.769 23.9393 106.353 23.776 106.997 23.776C107.501 23.776 107.944 23.8693 108.327 24.056C108.709 24.2427 109.017 24.5087 109.251 24.854V20.92H111.141V31H109.461L109.251 30.034C109.111 30.23 108.933 30.4167 108.719 30.594C108.513 30.7713 108.266 30.9113 107.977 31.014C107.687 31.1167 107.347 31.168 106.955 31.168ZM107.403 29.516C107.776 29.516 108.103 29.432 108.383 29.264C108.672 29.0867 108.896 28.844 109.055 28.536C109.213 28.228 109.293 27.8733 109.293 27.472C109.293 27.0707 109.213 26.716 109.055 26.408C108.896 26.1 108.672 25.862 108.383 25.694C108.103 25.5167 107.776 25.428 107.403 25.428C107.048 25.428 106.726 25.5167 106.437 25.694C106.147 25.862 105.919 26.1 105.751 26.408C105.592 26.716 105.513 27.066 105.513 27.458C105.513 27.8687 105.592 28.228 105.751 28.536C105.919 28.844 106.143 29.0867 106.423 29.264C106.712 29.432 107.039 29.516 107.403 29.516ZM116.38 31.168C115.671 31.168 115.041 31.0187 114.49 30.72C113.949 30.412 113.524 29.9873 113.216 29.446C112.918 28.8953 112.768 28.2607 112.768 27.542C112.768 26.8047 112.918 26.156 113.216 25.596C113.524 25.0267 113.949 24.5833 114.49 24.266C115.032 23.9393 115.662 23.776 116.38 23.776C117.08 23.776 117.692 23.93 118.214 24.238C118.737 24.546 119.143 24.9613 119.432 25.484C119.722 26.0067 119.866 26.5993 119.866 27.262C119.866 27.3553 119.866 27.4627 119.866 27.584C119.866 27.696 119.857 27.8127 119.838 27.934H114.112V26.786H117.962C117.934 26.3287 117.771 25.9693 117.472 25.708C117.183 25.4467 116.819 25.316 116.38 25.316C116.063 25.316 115.769 25.3907 115.498 25.54C115.228 25.68 115.013 25.8993 114.854 26.198C114.705 26.4967 114.63 26.8747 114.63 27.332V27.738C114.63 28.1207 114.7 28.4567 114.84 28.746C114.99 29.026 115.195 29.2453 115.456 29.404C115.718 29.5533 116.021 29.628 116.366 29.628C116.712 29.628 116.996 29.5533 117.22 29.404C117.454 29.2547 117.626 29.0633 117.738 28.83H119.67C119.54 29.2687 119.32 29.6653 119.012 30.02C118.704 30.3747 118.326 30.6547 117.878 30.86C117.43 31.0653 116.931 31.168 116.38 31.168ZM129.147 31.168C128.167 31.168 127.322 30.958 126.613 30.538C125.913 30.1087 125.372 29.516 124.989 28.76C124.616 27.9947 124.429 27.1127 124.429 26.114C124.429 25.1153 124.616 24.2333 124.989 23.468C125.372 22.7027 125.913 22.1053 126.613 21.676C127.322 21.2467 128.167 21.032 129.147 21.032C130.332 21.032 131.303 21.326 132.059 21.914C132.815 22.502 133.286 23.3327 133.473 24.406H131.415C131.294 23.8833 131.037 23.4773 130.645 23.188C130.262 22.8893 129.758 22.74 129.133 22.74C128.554 22.74 128.055 22.88 127.635 23.16C127.224 23.4307 126.907 23.818 126.683 24.322C126.459 24.8167 126.347 25.414 126.347 26.114C126.347 26.8047 126.459 27.402 126.683 27.906C126.907 28.41 127.224 28.7973 127.635 29.068C128.055 29.3387 128.554 29.474 129.133 29.474C129.758 29.474 130.262 29.3387 130.645 29.068C131.028 28.788 131.28 28.4007 131.401 27.906H133.473C133.286 28.9233 132.815 29.7213 132.059 30.3C131.303 30.8787 130.332 31.168 129.147 31.168ZM139.609 31.168C138.657 31.168 137.817 30.9533 137.089 30.524C136.361 30.0947 135.792 29.502 135.381 28.746C134.97 27.9807 134.765 27.0987 134.765 26.1C134.765 25.1013 134.97 24.224 135.381 23.468C135.792 22.7027 136.361 22.1053 137.089 21.676C137.817 21.2467 138.657 21.032 139.609 21.032C140.57 21.032 141.415 21.2467 142.143 21.676C142.871 22.1053 143.436 22.7027 143.837 23.468C144.248 24.224 144.453 25.1013 144.453 26.1C144.453 27.0987 144.248 27.9807 143.837 28.746C143.436 29.502 142.871 30.0947 142.143 30.524C141.415 30.9533 140.57 31.168 139.609 31.168ZM139.609 29.474C140.206 29.474 140.72 29.3387 141.149 29.068C141.588 28.788 141.928 28.396 142.171 27.892C142.414 27.388 142.535 26.7907 142.535 26.1C142.535 25.4 142.414 24.8027 142.171 24.308C141.928 23.804 141.588 23.4167 141.149 23.146C140.72 22.8753 140.206 22.74 139.609 22.74C139.021 22.74 138.508 22.8753 138.069 23.146C137.63 23.4167 137.29 23.804 137.047 24.308C136.804 24.8027 136.683 25.4 136.683 26.1C136.683 26.7907 136.804 27.388 137.047 27.892C137.29 28.396 137.63 28.788 138.069 29.068C138.508 29.3387 139.021 29.474 139.609 29.474ZM145.511 34V33.1348C145.864 32.8492 146.208 32.5664 146.544 32.2864C146.88 32.0008 147.183 31.7208 147.452 31.4464C147.72 31.1664 147.933 30.8948 148.09 30.6316C148.247 30.3628 148.325 30.1024 148.325 29.8504C148.325 29.7048 148.297 29.5676 148.241 29.4388C148.185 29.31 148.098 29.2064 147.981 29.128C147.863 29.0496 147.709 29.0104 147.519 29.0104C147.334 29.0104 147.174 29.0552 147.04 29.1448C146.911 29.2288 146.813 29.3436 146.746 29.4892C146.684 29.6348 146.654 29.8 146.654 29.9848H145.52C145.531 29.5424 145.626 29.1756 145.805 28.8844C145.99 28.5932 146.234 28.3776 146.536 28.2376C146.844 28.092 147.186 28.0192 147.561 28.0192C147.981 28.0192 148.334 28.0976 148.619 28.2544C148.91 28.4056 149.129 28.6156 149.274 28.8844C149.426 29.1476 149.501 29.4472 149.501 29.7832C149.501 30.0408 149.454 30.2928 149.358 30.5392C149.269 30.78 149.143 31.0152 148.98 31.2448C148.818 31.4744 148.633 31.6956 148.426 31.9084C148.224 32.1156 148.012 32.3144 147.788 32.5048C147.569 32.6952 147.354 32.8744 147.141 33.0424H149.636V34H145.511ZM154.427 34.08V23.944H156.107L156.317 24.924C156.466 24.7187 156.643 24.532 156.849 24.364C157.054 24.1867 157.297 24.0467 157.577 23.944C157.866 23.832 158.202 23.776 158.585 23.776C159.247 23.776 159.831 23.9393 160.335 24.266C160.839 24.5927 161.235 25.036 161.525 25.596C161.823 26.1467 161.973 26.7767 161.973 27.486C161.973 28.1953 161.823 28.83 161.525 29.39C161.226 29.9407 160.825 30.3747 160.321 30.692C159.817 31.0093 159.243 31.168 158.599 31.168C158.076 31.168 157.623 31.0747 157.241 30.888C156.867 30.692 156.559 30.426 156.317 30.09V34.08H154.427ZM158.151 29.516C158.524 29.516 158.851 29.432 159.131 29.264C159.42 29.096 159.644 28.858 159.803 28.55C159.961 28.242 160.041 27.8873 160.041 27.486C160.041 27.0847 159.961 26.73 159.803 26.422C159.644 26.1047 159.42 25.862 159.131 25.694C158.851 25.5167 158.524 25.428 158.151 25.428C157.787 25.428 157.46 25.5167 157.171 25.694C156.891 25.862 156.667 26.1 156.499 26.408C156.34 26.716 156.261 27.0707 156.261 27.472C156.261 27.8733 156.34 28.2327 156.499 28.55C156.667 28.858 156.891 29.096 157.171 29.264C157.46 29.432 157.787 29.516 158.151 29.516ZM166.933 31.168C166.261 31.168 165.654 31.014 165.113 30.706C164.581 30.3887 164.156 29.9547 163.839 29.404C163.531 28.844 163.377 28.2047 163.377 27.486C163.377 26.7487 163.531 26.1047 163.839 25.554C164.156 24.994 164.585 24.56 165.127 24.252C165.668 23.9347 166.275 23.776 166.947 23.776C167.628 23.776 168.235 23.9347 168.767 24.252C169.308 24.56 169.733 24.994 170.041 25.554C170.358 26.1047 170.517 26.744 170.517 27.472C170.517 28.2 170.358 28.844 170.041 29.404C169.733 29.9547 169.308 30.3887 168.767 30.706C168.225 31.014 167.614 31.168 166.933 31.168ZM166.933 29.53C167.25 29.53 167.53 29.4553 167.773 29.306C168.025 29.1567 168.221 28.928 168.361 28.62C168.51 28.312 168.585 27.9293 168.585 27.472C168.585 27.0147 168.51 26.6367 168.361 26.338C168.221 26.03 168.025 25.8013 167.773 25.652C167.53 25.4933 167.255 25.414 166.947 25.414C166.648 25.414 166.373 25.4933 166.121 25.652C165.869 25.8013 165.668 26.03 165.519 26.338C165.379 26.6367 165.309 27.0147 165.309 27.472C165.309 27.9293 165.379 28.312 165.519 28.62C165.668 28.928 165.864 29.1567 166.107 29.306C166.359 29.4553 166.634 29.53 166.933 29.53ZM172.146 31V23.944H173.826L174.008 25.246C174.176 24.938 174.386 24.6767 174.638 24.462C174.899 24.2473 175.193 24.0793 175.52 23.958C175.856 23.8367 176.224 23.776 176.626 23.776V25.778H175.982C175.702 25.778 175.44 25.8107 175.198 25.876C174.964 25.9413 174.759 26.0487 174.582 26.198C174.404 26.338 174.269 26.534 174.176 26.786C174.082 27.038 174.036 27.3553 174.036 27.738V31H172.146ZM183.059 31L180.469 23.944H182.457L184.207 29.222L185.957 23.944H187.931L185.355 31H183.059ZM189.127 31V23.944H191.017V31H189.127ZM190.079 22.978C189.743 22.978 189.463 22.88 189.239 22.684C189.024 22.4787 188.917 22.222 188.917 21.914C188.917 21.606 189.024 21.354 189.239 21.158C189.463 20.9527 189.743 20.85 190.079 20.85C190.424 20.85 190.704 20.9527 190.919 21.158C191.143 21.354 191.255 21.606 191.255 21.914C191.255 22.222 191.143 22.4787 190.919 22.684C190.704 22.88 190.424 22.978 190.079 22.978ZM195.811 31.168C195.167 31.168 194.607 31.0653 194.131 30.86C193.655 30.6547 193.281 30.37 193.011 30.006C192.74 29.642 192.586 29.2313 192.549 28.774H194.425C194.471 28.9513 194.551 29.1147 194.663 29.264C194.775 29.404 194.924 29.516 195.111 29.6C195.297 29.684 195.521 29.726 195.783 29.726C196.035 29.726 196.24 29.6933 196.399 29.628C196.557 29.5533 196.674 29.4553 196.749 29.334C196.833 29.2127 196.875 29.0867 196.875 28.956C196.875 28.76 196.819 28.6107 196.707 28.508C196.595 28.396 196.431 28.3073 196.217 28.242C196.002 28.1767 195.741 28.1113 195.433 28.046C195.097 27.9807 194.765 27.9013 194.439 27.808C194.121 27.7053 193.837 27.5793 193.585 27.43C193.333 27.2807 193.132 27.0893 192.983 26.856C192.833 26.6227 192.759 26.3333 192.759 25.988C192.759 25.568 192.871 25.1947 193.095 24.868C193.319 24.532 193.645 24.266 194.075 24.07C194.504 23.874 195.022 23.776 195.629 23.776C196.478 23.776 197.15 23.9673 197.645 24.35C198.139 24.7327 198.433 25.26 198.527 25.932H196.749C196.693 25.7173 196.567 25.5493 196.371 25.428C196.184 25.2973 195.932 25.232 195.615 25.232C195.279 25.232 195.022 25.2927 194.845 25.414C194.667 25.5353 194.579 25.694 194.579 25.89C194.579 26.0207 194.635 26.1373 194.747 26.24C194.868 26.3427 195.036 26.4313 195.251 26.506C195.465 26.5713 195.727 26.6367 196.035 26.702C196.576 26.814 197.052 26.9447 197.463 27.094C197.873 27.234 198.195 27.4393 198.429 27.71C198.662 27.9713 198.779 28.354 198.779 28.858C198.779 29.306 198.657 29.7073 198.415 30.062C198.172 30.4073 197.827 30.678 197.379 30.874C196.94 31.07 196.417 31.168 195.811 31.168ZM200.42 31V23.944H202.31V31H200.42ZM201.372 22.978C201.036 22.978 200.756 22.88 200.532 22.684C200.317 22.4787 200.21 22.222 200.21 21.914C200.21 21.606 200.317 21.354 200.532 21.158C200.756 20.9527 201.036 20.85 201.372 20.85C201.717 20.85 201.997 20.9527 202.212 21.158C202.436 21.354 202.548 21.606 202.548 21.914C202.548 22.222 202.436 22.4787 202.212 22.684C201.997 22.88 201.717 22.978 201.372 22.978ZM207.398 31C206.903 31 206.469 30.9253 206.096 30.776C205.732 30.6173 205.447 30.3607 205.242 30.006C205.036 29.642 204.934 29.1473 204.934 28.522V25.526H203.73V23.944H204.934L205.144 22.026H206.824V23.944H208.686V25.526H206.824V28.55C206.824 28.8673 206.894 29.0867 207.034 29.208C207.174 29.3293 207.412 29.39 207.748 29.39H208.672V31H207.398ZM212.656 31.168C212.068 31.168 211.583 31.0747 211.2 30.888C210.818 30.692 210.533 30.4353 210.346 30.118C210.169 29.7913 210.08 29.432 210.08 29.04C210.08 28.6107 210.188 28.2327 210.402 27.906C210.626 27.5793 210.958 27.3227 211.396 27.136C211.844 26.9493 212.404 26.856 213.076 26.856H214.826C214.826 26.5107 214.78 26.226 214.686 26.002C214.593 25.7687 214.448 25.596 214.252 25.484C214.056 25.372 213.795 25.316 213.468 25.316C213.114 25.316 212.81 25.3953 212.558 25.554C212.316 25.7033 212.166 25.9367 212.11 26.254H210.276C210.323 25.75 210.486 25.316 210.766 24.952C211.056 24.5787 211.434 24.2893 211.9 24.084C212.376 23.8787 212.904 23.776 213.482 23.776C214.145 23.776 214.719 23.888 215.204 24.112C215.69 24.336 216.063 24.658 216.324 25.078C216.586 25.498 216.716 26.016 216.716 26.632V31H215.12L214.91 29.922C214.808 30.1087 214.686 30.2767 214.546 30.426C214.406 30.5753 214.243 30.706 214.056 30.818C213.87 30.93 213.66 31.014 213.426 31.07C213.193 31.1353 212.936 31.168 212.656 31.168ZM213.104 29.712C213.347 29.712 213.562 29.67 213.748 29.586C213.944 29.4927 214.112 29.3713 214.252 29.222C214.392 29.0633 214.5 28.886 214.574 28.69C214.658 28.4847 214.714 28.2653 214.742 28.032V28.018H213.3C213.011 28.018 212.773 28.0553 212.586 28.13C212.409 28.1953 212.278 28.2933 212.194 28.424C212.11 28.5547 212.068 28.704 212.068 28.872C212.068 29.0587 212.11 29.2127 212.194 29.334C212.278 29.4553 212.4 29.5487 212.558 29.614C212.717 29.6793 212.899 29.712 213.104 29.712Z" fill="white"/>
<path d="M72.79 65.108C72.334 65.108 71.926 65.03 71.566 64.874C71.212 64.718 70.93 64.49 70.72 64.19C70.516 63.89 70.411 63.527 70.405 63.101H71.692C71.698 63.287 71.746 63.455 71.836 63.605C71.926 63.755 72.049 63.875 72.205 63.965C72.367 64.049 72.559 64.091 72.781 64.091C72.973 64.091 73.138 64.061 73.276 64.001C73.42 63.935 73.531 63.845 73.609 63.731C73.687 63.617 73.726 63.482 73.726 63.326C73.726 63.146 73.681 62.996 73.591 62.876C73.507 62.756 73.387 62.654 73.231 62.57C73.081 62.486 72.904 62.411 72.7 62.345C72.502 62.273 72.292 62.198 72.07 62.12C71.572 61.958 71.191 61.742 70.927 61.472C70.669 61.202 70.54 60.845 70.54 60.401C70.54 60.023 70.63 59.699 70.81 59.429C70.996 59.159 71.251 58.952 71.575 58.808C71.899 58.664 72.268 58.592 72.682 58.592C73.108 58.592 73.48 58.667 73.798 58.817C74.122 58.961 74.377 59.171 74.563 59.447C74.755 59.723 74.854 60.047 74.86 60.419H73.564C73.558 60.281 73.516 60.152 73.438 60.032C73.366 59.906 73.264 59.807 73.132 59.735C73 59.657 72.844 59.618 72.664 59.618C72.508 59.612 72.364 59.636 72.232 59.69C72.106 59.744 72.004 59.825 71.926 59.933C71.854 60.035 71.818 60.164 71.818 60.32C71.818 60.47 71.854 60.596 71.926 60.698C72.004 60.8 72.109 60.89 72.241 60.968C72.373 61.04 72.529 61.109 72.709 61.175C72.889 61.235 73.084 61.298 73.294 61.364C73.606 61.472 73.894 61.601 74.158 61.751C74.422 61.895 74.632 62.084 74.788 62.318C74.944 62.552 75.022 62.861 75.022 63.245C75.022 63.575 74.935 63.881 74.761 64.163C74.587 64.445 74.335 64.673 74.005 64.847C73.681 65.021 73.276 65.108 72.79 65.108ZM76.0526 65V60.464H77.2676V65H76.0526ZM76.6646 59.843C76.4486 59.843 76.2686 59.78 76.1246 59.654C75.9866 59.522 75.9176 59.357 75.9176 59.159C75.9176 58.961 75.9866 58.799 76.1246 58.673C76.2686 58.541 76.4486 58.475 76.6646 58.475C76.8866 58.475 77.0666 58.541 77.2046 58.673C77.3486 58.799 77.4206 58.961 77.4206 59.159C77.4206 59.357 77.3486 59.522 77.2046 59.654C77.0666 59.78 76.8866 59.843 76.6646 59.843ZM80.5384 65C80.2204 65 79.9414 64.952 79.7014 64.856C79.4674 64.754 79.2844 64.589 79.1524 64.361C79.0204 64.127 78.9544 63.809 78.9544 63.407V61.481H78.1804V60.464H78.9544L79.0894 59.231H80.1694V60.464H81.3664V61.481H80.1694V63.425C80.1694 63.629 80.2144 63.77 80.3044 63.848C80.3944 63.926 80.5474 63.965 80.7634 63.965H81.3574V65H80.5384ZM82.4159 65V60.464H83.6309V65H82.4159ZM83.0279 59.843C82.8119 59.843 82.6319 59.78 82.4879 59.654C82.3499 59.522 82.2809 59.357 82.2809 59.159C82.2809 58.961 82.3499 58.799 82.4879 58.673C82.6319 58.541 82.8119 58.475 83.0279 58.475C83.2499 58.475 83.4299 58.541 83.5679 58.673C83.7119 58.799 83.7839 58.961 83.7839 59.159C83.7839 59.357 83.7119 59.522 83.5679 59.654C83.4299 59.78 83.2499 59.843 83.0279 59.843ZM87.0006 65.108C86.5686 65.108 86.1786 65.009 85.8306 64.811C85.4886 64.607 85.2156 64.328 85.0116 63.974C84.8136 63.614 84.7146 63.203 84.7146 62.741C84.7146 62.267 84.8136 61.853 85.0116 61.499C85.2156 61.139 85.4916 60.86 85.8396 60.662C86.1876 60.458 86.5776 60.356 87.0096 60.356C87.4476 60.356 87.8376 60.458 88.1796 60.662C88.5276 60.86 88.8006 61.139 88.9986 61.499C89.2026 61.853 89.3046 62.264 89.3046 62.732C89.3046 63.2 89.2026 63.614 88.9986 63.974C88.8006 64.328 88.5276 64.607 88.1796 64.811C87.8316 65.009 87.4386 65.108 87.0006 65.108ZM87.0006 64.055C87.2046 64.055 87.3846 64.007 87.5406 63.911C87.7026 63.815 87.8286 63.668 87.9186 63.47C88.0146 63.272 88.0626 63.026 88.0626 62.732C88.0626 62.438 88.0146 62.195 87.9186 62.003C87.8286 61.805 87.7026 61.658 87.5406 61.562C87.3846 61.46 87.2076 61.409 87.0096 61.409C86.8176 61.409 86.6406 61.46 86.4786 61.562C86.3166 61.658 86.1876 61.805 86.0916 62.003C86.0016 62.195 85.9566 62.438 85.9566 62.732C85.9566 63.026 86.0016 63.272 86.0916 63.47C86.1876 63.668 86.3136 63.815 86.4696 63.911C86.6316 64.007 86.8086 64.055 87.0006 64.055ZM93.361 65L92.029 60.464H93.226L94.108 64.145L93.883 64.136L94.891 60.464H96.241L97.249 64.136L97.015 64.145L97.906 60.464H99.103L97.771 65H96.511L95.44 61.22H95.692L94.621 65H93.361ZM101.881 65.108C101.425 65.108 101.02 65.012 100.666 64.82C100.318 64.622 100.045 64.349 99.8474 64.001C99.6554 63.647 99.5594 63.239 99.5594 62.777C99.5594 62.303 99.6554 61.886 99.8474 61.526C100.045 61.16 100.318 60.875 100.666 60.671C101.014 60.461 101.419 60.356 101.881 60.356C102.331 60.356 102.724 60.455 103.06 60.653C103.396 60.851 103.657 61.118 103.843 61.454C104.029 61.79 104.122 62.171 104.122 62.597C104.122 62.657 104.122 62.726 104.122 62.804C104.122 62.876 104.116 62.951 104.104 63.029H100.423V62.291H102.898C102.88 61.997 102.775 61.766 102.583 61.598C102.397 61.43 102.163 61.346 101.881 61.346C101.677 61.346 101.488 61.394 101.314 61.49C101.14 61.58 101.002 61.721 100.9 61.913C100.804 62.105 100.756 62.348 100.756 62.642V62.903C100.756 63.149 100.801 63.365 100.891 63.551C100.987 63.731 101.119 63.872 101.287 63.974C101.455 64.07 101.65 64.118 101.872 64.118C102.094 64.118 102.277 64.07 102.421 63.974C102.571 63.878 102.682 63.755 102.754 63.605H103.996C103.912 63.887 103.771 64.142 103.573 64.37C103.375 64.598 103.132 64.778 102.844 64.91C102.556 65.042 102.235 65.108 101.881 65.108ZM107.799 65.108C107.565 65.108 107.355 65.078 107.169 65.018C106.989 64.958 106.827 64.877 106.683 64.775C106.545 64.667 106.428 64.547 106.332 64.415L106.197 65H105.117V58.52H106.332V61.094C106.476 60.884 106.665 60.71 106.899 60.572C107.139 60.428 107.436 60.356 107.79 60.356C108.21 60.356 108.582 60.461 108.906 60.671C109.236 60.875 109.494 61.157 109.68 61.517C109.872 61.871 109.968 62.279 109.968 62.741C109.968 63.191 109.872 63.596 109.68 63.956C109.494 64.316 109.239 64.598 108.915 64.802C108.591 65.006 108.219 65.108 107.799 65.108ZM107.511 64.046C107.751 64.046 107.961 63.992 108.141 63.884C108.327 63.77 108.471 63.617 108.573 63.425C108.675 63.227 108.726 62.999 108.726 62.741C108.726 62.483 108.675 62.255 108.573 62.057C108.471 61.853 108.327 61.697 108.141 61.589C107.961 61.475 107.751 61.418 107.511 61.418C107.277 61.418 107.067 61.475 106.881 61.589C106.701 61.697 106.557 61.85 106.449 62.048C106.347 62.246 106.296 62.474 106.296 62.732C106.296 62.99 106.347 63.221 106.449 63.425C106.557 63.623 106.701 63.776 106.881 63.884C107.067 63.992 107.277 64.046 107.511 64.046ZM115.149 65.108C114.735 65.108 114.363 65.006 114.033 64.802C113.709 64.598 113.454 64.316 113.268 63.956C113.082 63.596 112.989 63.191 112.989 62.741C112.989 62.279 113.082 61.871 113.268 61.517C113.46 61.157 113.721 60.875 114.051 60.671C114.387 60.461 114.762 60.356 115.176 60.356C115.5 60.356 115.785 60.416 116.031 60.536C116.277 60.656 116.475 60.827 116.625 61.049V58.52H117.84V65H116.76L116.625 64.379C116.535 64.505 116.421 64.625 116.283 64.739C116.151 64.853 115.992 64.943 115.806 65.009C115.62 65.075 115.401 65.108 115.149 65.108ZM115.437 64.046C115.677 64.046 115.887 63.992 116.067 63.884C116.253 63.77 116.397 63.614 116.499 63.416C116.601 63.218 116.652 62.99 116.652 62.732C116.652 62.474 116.601 62.246 116.499 62.048C116.397 61.85 116.253 61.697 116.067 61.589C115.887 61.475 115.677 61.418 115.437 61.418C115.209 61.418 115.002 61.475 114.816 61.589C114.63 61.697 114.483 61.85 114.375 62.048C114.273 62.246 114.222 62.471 114.222 62.723C114.222 62.987 114.273 63.218 114.375 63.416C114.483 63.614 114.627 63.77 114.807 63.884C114.993 63.992 115.203 64.046 115.437 64.046ZM121.209 65.108C120.753 65.108 120.348 65.012 119.994 64.82C119.646 64.622 119.373 64.349 119.175 64.001C118.983 63.647 118.887 63.239 118.887 62.777C118.887 62.303 118.983 61.886 119.175 61.526C119.373 61.16 119.646 60.875 119.994 60.671C120.342 60.461 120.747 60.356 121.209 60.356C121.659 60.356 122.052 60.455 122.388 60.653C122.724 60.851 122.985 61.118 123.171 61.454C123.357 61.79 123.45 62.171 123.45 62.597C123.45 62.657 123.45 62.726 123.45 62.804C123.45 62.876 123.444 62.951 123.432 63.029H119.751V62.291H122.226C122.208 61.997 122.103 61.766 121.911 61.598C121.725 61.43 121.491 61.346 121.209 61.346C121.005 61.346 120.816 61.394 120.642 61.49C120.468 61.58 120.33 61.721 120.228 61.913C120.132 62.105 120.084 62.348 120.084 62.642V62.903C120.084 63.149 120.129 63.365 120.219 63.551C120.315 63.731 120.447 63.872 120.615 63.974C120.783 64.07 120.978 64.118 121.2 64.118C121.422 64.118 121.605 64.07 121.749 63.974C121.899 63.878 122.01 63.755 122.082 63.605H123.324C123.24 63.887 123.099 64.142 122.901 64.37C122.703 64.598 122.46 64.778 122.172 64.91C121.884 65.042 121.563 65.108 121.209 65.108ZM129.245 65.108C129.011 65.108 128.801 65.078 128.615 65.018C128.435 64.958 128.273 64.877 128.129 64.775C127.991 64.667 127.874 64.547 127.778 64.415L127.643 65H126.563V58.52H127.778V61.094C127.922 60.884 128.111 60.71 128.345 60.572C128.585 60.428 128.882 60.356 129.236 60.356C129.656 60.356 130.028 60.461 130.352 60.671C130.682 60.875 130.94 61.157 131.126 61.517C131.318 61.871 131.414 62.279 131.414 62.741C131.414 63.191 131.318 63.596 131.126 63.956C130.94 64.316 130.685 64.598 130.361 64.802C130.037 65.006 129.665 65.108 129.245 65.108ZM128.957 64.046C129.197 64.046 129.407 63.992 129.587 63.884C129.773 63.77 129.917 63.617 130.019 63.425C130.121 63.227 130.172 62.999 130.172 62.741C130.172 62.483 130.121 62.255 130.019 62.057C129.917 61.853 129.773 61.697 129.587 61.589C129.407 61.475 129.197 61.418 128.957 61.418C128.723 61.418 128.513 61.475 128.327 61.589C128.147 61.697 128.003 61.85 127.895 62.048C127.793 62.246 127.742 62.474 127.742 62.732C127.742 62.99 127.793 63.221 127.895 63.425C128.003 63.623 128.147 63.776 128.327 63.884C128.513 63.992 128.723 64.046 128.957 64.046ZM133.99 65.108C133.612 65.108 133.3 65.048 133.054 64.928C132.808 64.802 132.625 64.637 132.505 64.433C132.391 64.223 132.334 63.992 132.334 63.74C132.334 63.464 132.403 63.221 132.541 63.011C132.685 62.801 132.898 62.636 133.18 62.516C133.468 62.396 133.828 62.336 134.26 62.336H135.385C135.385 62.114 135.355 61.931 135.295 61.787C135.235 61.637 135.142 61.526 135.016 61.454C134.89 61.382 134.722 61.346 134.512 61.346C134.284 61.346 134.089 61.397 133.927 61.499C133.771 61.595 133.675 61.745 133.639 61.949H132.46C132.49 61.625 132.595 61.346 132.775 61.112C132.961 60.872 133.204 60.686 133.504 60.554C133.81 60.422 134.149 60.356 134.521 60.356C134.947 60.356 135.316 60.428 135.628 60.572C135.94 60.716 136.18 60.923 136.348 61.193C136.516 61.463 136.6 61.796 136.6 62.192V65H135.574L135.439 64.307C135.373 64.427 135.295 64.535 135.205 64.631C135.115 64.727 135.01 64.811 134.89 64.883C134.77 64.955 134.635 65.009 134.485 65.045C134.335 65.087 134.17 65.108 133.99 65.108ZM134.278 64.172C134.434 64.172 134.572 64.145 134.692 64.091C134.818 64.031 134.926 63.953 135.016 63.857C135.106 63.755 135.175 63.641 135.223 63.515C135.277 63.383 135.313 63.242 135.331 63.092V63.083H134.404C134.218 63.083 134.065 63.107 133.945 63.155C133.831 63.197 133.747 63.26 133.693 63.344C133.639 63.428 133.612 63.524 133.612 63.632C133.612 63.752 133.639 63.851 133.693 63.929C133.747 64.007 133.825 64.067 133.927 64.109C134.029 64.151 134.146 64.172 134.278 64.172ZM136.879 66.98V65.945H137.248C137.44 65.945 137.575 65.906 137.653 65.828C137.737 65.75 137.779 65.624 137.779 65.45V60.464H138.994V65.441C138.994 65.813 138.928 66.11 138.796 66.332C138.67 66.56 138.49 66.725 138.256 66.827C138.022 66.929 137.746 66.98 137.428 66.98H136.879ZM138.391 59.843C138.169 59.843 137.989 59.78 137.851 59.654C137.713 59.522 137.644 59.357 137.644 59.159C137.644 58.961 137.713 58.799 137.851 58.673C137.989 58.541 138.169 58.475 138.391 58.475C138.613 58.475 138.793 58.541 138.931 58.673C139.069 58.799 139.138 58.961 139.138 59.159C139.138 59.357 139.069 59.522 138.931 59.654C138.793 59.78 138.613 59.843 138.391 59.843ZM142.345 65.108C141.913 65.108 141.523 65.009 141.175 64.811C140.833 64.607 140.56 64.328 140.356 63.974C140.158 63.614 140.059 63.203 140.059 62.741C140.059 62.267 140.158 61.853 140.356 61.499C140.56 61.139 140.836 60.86 141.184 60.662C141.532 60.458 141.922 60.356 142.354 60.356C142.792 60.356 143.182 60.458 143.524 60.662C143.872 60.86 144.145 61.139 144.343 61.499C144.547 61.853 144.649 62.264 144.649 62.732C144.649 63.2 144.547 63.614 144.343 63.974C144.145 64.328 143.872 64.607 143.524 64.811C143.176 65.009 142.783 65.108 142.345 65.108ZM142.345 64.055C142.549 64.055 142.729 64.007 142.885 63.911C143.047 63.815 143.173 63.668 143.263 63.47C143.359 63.272 143.407 63.026 143.407 62.732C143.407 62.438 143.359 62.195 143.263 62.003C143.173 61.805 143.047 61.658 142.885 61.562C142.729 61.46 142.552 61.409 142.354 61.409C142.162 61.409 141.985 61.46 141.823 61.562C141.661 61.658 141.532 61.805 141.436 62.003C141.346 62.195 141.301 62.438 141.301 62.732C141.301 63.026 141.346 63.272 141.436 63.47C141.532 63.668 141.658 63.815 141.814 63.911C141.976 64.007 142.153 64.055 142.345 64.055ZM147.842 65V60.464H149.057V65H147.842ZM148.454 59.843C148.238 59.843 148.058 59.78 147.914 59.654C147.776 59.522 147.707 59.357 147.707 59.159C147.707 58.961 147.776 58.799 147.914 58.673C148.058 58.541 148.238 58.475 148.454 58.475C148.676 58.475 148.856 58.541 148.994 58.673C149.138 58.799 149.21 58.961 149.21 59.159C149.21 59.357 149.138 59.522 148.994 59.654C148.856 59.78 148.676 59.843 148.454 59.843ZM150.284 65V60.464H151.355L151.454 61.067C151.598 60.851 151.787 60.68 152.021 60.554C152.261 60.422 152.534 60.356 152.84 60.356C153.068 60.356 153.272 60.386 153.452 60.446C153.632 60.506 153.791 60.593 153.929 60.707C154.073 60.821 154.19 60.965 154.28 61.139C154.448 60.893 154.667 60.701 154.937 60.563C155.207 60.425 155.501 60.356 155.819 60.356C156.215 60.356 156.545 60.437 156.809 60.599C157.073 60.755 157.271 60.983 157.403 61.283C157.541 61.583 157.61 61.952 157.61 62.39V65H156.404V62.498C156.404 62.138 156.332 61.862 156.188 61.67C156.05 61.478 155.834 61.382 155.54 61.382C155.348 61.382 155.177 61.43 155.027 61.526C154.877 61.622 154.76 61.76 154.676 61.94C154.598 62.12 154.559 62.336 154.559 62.588V65H153.344V62.498C153.344 62.138 153.272 61.862 153.128 61.67C152.984 61.478 152.762 61.382 152.462 61.382C152.276 61.382 152.108 61.43 151.958 61.526C151.814 61.622 151.7 61.76 151.616 61.94C151.538 62.12 151.499 62.336 151.499 62.588V65H150.284ZM158.757 66.98V60.464H159.837L159.972 61.094C160.068 60.962 160.182 60.842 160.314 60.734C160.446 60.62 160.602 60.53 160.782 60.464C160.968 60.392 161.184 60.356 161.43 60.356C161.856 60.356 162.231 60.461 162.555 60.671C162.879 60.881 163.134 61.166 163.32 61.526C163.512 61.88 163.608 62.285 163.608 62.741C163.608 63.197 163.512 63.605 163.32 63.965C163.128 64.319 162.87 64.598 162.546 64.802C162.222 65.006 161.853 65.108 161.439 65.108C161.103 65.108 160.812 65.048 160.566 64.928C160.326 64.802 160.128 64.631 159.972 64.415V66.98H158.757ZM161.151 64.046C161.391 64.046 161.601 63.992 161.781 63.884C161.967 63.776 162.111 63.623 162.213 63.425C162.315 63.227 162.366 62.999 162.366 62.741C162.366 62.483 162.315 62.255 162.213 62.057C162.111 61.853 161.967 61.697 161.781 61.589C161.601 61.475 161.391 61.418 161.151 61.418C160.917 61.418 160.707 61.475 160.521 61.589C160.341 61.697 160.197 61.85 160.089 62.048C159.987 62.246 159.936 62.474 159.936 62.732C159.936 62.99 159.987 63.221 160.089 63.425C160.197 63.623 160.341 63.776 160.521 63.884C160.707 63.992 160.917 64.046 161.151 64.046ZM166.185 65.108C165.807 65.108 165.495 65.048 165.249 64.928C165.003 64.802 164.82 64.637 164.7 64.433C164.586 64.223 164.529 63.992 164.529 63.74C164.529 63.464 164.598 63.221 164.736 63.011C164.88 62.801 165.093 62.636 165.375 62.516C165.663 62.396 166.023 62.336 166.455 62.336H167.58C167.58 62.114 167.55 61.931 167.49 61.787C167.43 61.637 167.337 61.526 167.211 61.454C167.085 61.382 166.917 61.346 166.707 61.346C166.479 61.346 166.284 61.397 166.122 61.499C165.966 61.595 165.87 61.745 165.834 61.949H164.655C164.685 61.625 164.79 61.346 164.97 61.112C165.156 60.872 165.399 60.686 165.699 60.554C166.005 60.422 166.344 60.356 166.716 60.356C167.142 60.356 167.511 60.428 167.823 60.572C168.135 60.716 168.375 60.923 168.543 61.193C168.711 61.463 168.795 61.796 168.795 62.192V65H167.769L167.634 64.307C167.568 64.427 167.49 64.535 167.4 64.631C167.31 64.727 167.205 64.811 167.085 64.883C166.965 64.955 166.83 65.009 166.68 65.045C166.53 65.087 166.365 65.108 166.185 65.108ZM166.473 64.172C166.629 64.172 166.767 64.145 166.887 64.091C167.013 64.031 167.121 63.953 167.211 63.857C167.301 63.755 167.37 63.641 167.418 63.515C167.472 63.383 167.508 63.242 167.526 63.092V63.083H166.599C166.413 63.083 166.26 63.107 166.14 63.155C166.026 63.197 165.942 63.26 165.888 63.344C165.834 63.428 165.807 63.524 165.807 63.632C165.807 63.752 165.834 63.851 165.888 63.929C165.942 64.007 166.02 64.067 166.122 64.109C166.224 64.151 166.341 64.172 166.473 64.172ZM172.124 65.108C171.668 65.108 171.263 65.006 170.909 64.802C170.555 64.598 170.279 64.319 170.081 63.965C169.883 63.611 169.784 63.206 169.784 62.75C169.784 62.282 169.883 61.871 170.081 61.517C170.279 61.157 170.555 60.875 170.909 60.671C171.263 60.461 171.668 60.356 172.124 60.356C172.706 60.356 173.195 60.509 173.591 60.815C173.987 61.121 174.239 61.541 174.347 62.075H173.06C173.006 61.865 172.892 61.7 172.718 61.58C172.55 61.46 172.349 61.4 172.115 61.4C171.905 61.4 171.716 61.454 171.548 61.562C171.386 61.664 171.257 61.817 171.161 62.021C171.071 62.219 171.026 62.456 171.026 62.732C171.026 62.942 171.053 63.131 171.107 63.299C171.161 63.461 171.236 63.602 171.332 63.722C171.428 63.836 171.542 63.923 171.674 63.983C171.812 64.043 171.959 64.073 172.115 64.073C172.271 64.073 172.412 64.046 172.538 63.992C172.67 63.938 172.781 63.863 172.871 63.767C172.961 63.665 173.024 63.542 173.06 63.398H174.347C174.239 63.92 173.984 64.337 173.582 64.649C173.186 64.955 172.7 65.108 172.124 65.108ZM177.385 65C177.067 65 176.788 64.952 176.548 64.856C176.314 64.754 176.131 64.589 175.999 64.361C175.867 64.127 175.801 63.809 175.801 63.407V61.481H175.027V60.464H175.801L175.936 59.231H177.016V60.464H178.213V61.481H177.016V63.425C177.016 63.629 177.061 63.77 177.151 63.848C177.241 63.926 177.394 63.965 177.61 63.965H178.204V65H177.385ZM181.263 65.108C180.831 65.108 180.441 65.009 180.093 64.811C179.751 64.607 179.478 64.328 179.274 63.974C179.076 63.614 178.977 63.203 178.977 62.741C178.977 62.267 179.076 61.853 179.274 61.499C179.478 61.139 179.754 60.86 180.102 60.662C180.45 60.458 180.84 60.356 181.272 60.356C181.71 60.356 182.1 60.458 182.442 60.662C182.79 60.86 183.063 61.139 183.261 61.499C183.465 61.853 183.567 62.264 183.567 62.732C183.567 63.2 183.465 63.614 183.261 63.974C183.063 64.328 182.79 64.607 182.442 64.811C182.094 65.009 181.701 65.108 181.263 65.108ZM181.263 64.055C181.467 64.055 181.647 64.007 181.803 63.911C181.965 63.815 182.091 63.668 182.181 63.47C182.277 63.272 182.325 63.026 182.325 62.732C182.325 62.438 182.277 62.195 182.181 62.003C182.091 61.805 181.965 61.658 181.803 61.562C181.647 61.46 181.47 61.409 181.272 61.409C181.08 61.409 180.903 61.46 180.741 61.562C180.579 61.658 180.45 61.805 180.354 62.003C180.264 62.195 180.219 62.438 180.219 62.732C180.219 63.026 180.264 63.272 180.354 63.47C180.45 63.668 180.576 63.815 180.732 63.911C180.894 64.007 181.071 64.055 181.263 64.055ZM188.263 65.108C187.885 65.108 187.573 65.048 187.327 64.928C187.081 64.802 186.898 64.637 186.778 64.433C186.664 64.223 186.607 63.992 186.607 63.74C186.607 63.464 186.676 63.221 186.814 63.011C186.958 62.801 187.171 62.636 187.453 62.516C187.741 62.396 188.101 62.336 188.533 62.336H189.658C189.658 62.114 189.628 61.931 189.568 61.787C189.508 61.637 189.415 61.526 189.289 61.454C189.163 61.382 188.995 61.346 188.785 61.346C188.557 61.346 188.362 61.397 188.2 61.499C188.044 61.595 187.948 61.745 187.912 61.949H186.733C186.763 61.625 186.868 61.346 187.048 61.112C187.234 60.872 187.477 60.686 187.777 60.554C188.083 60.422 188.422 60.356 188.794 60.356C189.22 60.356 189.589 60.428 189.901 60.572C190.213 60.716 190.453 60.923 190.621 61.193C190.789 61.463 190.873 61.796 190.873 62.192V65H189.847L189.712 64.307C189.646 64.427 189.568 64.535 189.478 64.631C189.388 64.727 189.283 64.811 189.163 64.883C189.043 64.955 188.908 65.009 188.758 65.045C188.608 65.087 188.443 65.108 188.263 65.108ZM188.551 64.172C188.707 64.172 188.845 64.145 188.965 64.091C189.091 64.031 189.199 63.953 189.289 63.857C189.379 63.755 189.448 63.641 189.496 63.515C189.55 63.383 189.586 63.242 189.604 63.092V63.083H188.677C188.491 63.083 188.338 63.107 188.218 63.155C188.104 63.197 188.02 63.26 187.966 63.344C187.912 63.428 187.885 63.524 187.885 63.632C187.885 63.752 187.912 63.851 187.966 63.929C188.02 64.007 188.098 64.067 188.2 64.109C188.302 64.151 188.419 64.172 188.551 64.172ZM192.006 65V60.464H193.077L193.176 61.067C193.32 60.851 193.509 60.68 193.743 60.554C193.983 60.422 194.256 60.356 194.562 60.356C194.79 60.356 194.994 60.386 195.174 60.446C195.354 60.506 195.513 60.593 195.651 60.707C195.795 60.821 195.912 60.965 196.002 61.139C196.17 60.893 196.389 60.701 196.659 60.563C196.929 60.425 197.223 60.356 197.541 60.356C197.937 60.356 198.267 60.437 198.531 60.599C198.795 60.755 198.993 60.983 199.125 61.283C199.263 61.583 199.332 61.952 199.332 62.39V65H198.126V62.498C198.126 62.138 198.054 61.862 197.91 61.67C197.772 61.478 197.556 61.382 197.262 61.382C197.07 61.382 196.899 61.43 196.749 61.526C196.599 61.622 196.482 61.76 196.398 61.94C196.32 62.12 196.281 62.336 196.281 62.588V65H195.066V62.498C195.066 62.138 194.994 61.862 194.85 61.67C194.706 61.478 194.484 61.382 194.184 61.382C193.998 61.382 193.83 61.43 193.68 61.526C193.536 61.622 193.422 61.76 193.338 61.94C193.26 62.12 193.221 62.336 193.221 62.588V65H192.006ZM203.161 65.108C202.927 65.108 202.717 65.078 202.531 65.018C202.351 64.958 202.189 64.877 202.045 64.775C201.907 64.667 201.79 64.547 201.694 64.415L201.559 65H200.479V58.52H201.694V61.094C201.838 60.884 202.027 60.71 202.261 60.572C202.501 60.428 202.798 60.356 203.152 60.356C203.572 60.356 203.944 60.461 204.268 60.671C204.598 60.875 204.856 61.157 205.042 61.517C205.234 61.871 205.33 62.279 205.33 62.741C205.33 63.191 205.234 63.596 205.042 63.956C204.856 64.316 204.601 64.598 204.277 64.802C203.953 65.006 203.581 65.108 203.161 65.108ZM202.873 64.046C203.113 64.046 203.323 63.992 203.503 63.884C203.689 63.77 203.833 63.617 203.935 63.425C204.037 63.227 204.088 62.999 204.088 62.741C204.088 62.483 204.037 62.255 203.935 62.057C203.833 61.853 203.689 61.697 203.503 61.589C203.323 61.475 203.113 61.418 202.873 61.418C202.639 61.418 202.429 61.475 202.243 61.589C202.063 61.697 201.919 61.85 201.811 62.048C201.709 62.246 201.658 62.474 201.658 62.732C201.658 62.99 201.709 63.221 201.811 63.425C201.919 63.623 202.063 63.776 202.243 63.884C202.429 63.992 202.639 64.046 202.873 64.046ZM206.403 65V60.464H207.618V65H206.403ZM207.015 59.843C206.799 59.843 206.619 59.78 206.475 59.654C206.337 59.522 206.268 59.357 206.268 59.159C206.268 58.961 206.337 58.799 206.475 58.673C206.619 58.541 206.799 58.475 207.015 58.475C207.237 58.475 207.417 58.541 207.555 58.673C207.699 58.799 207.771 58.961 207.771 59.159C207.771 59.357 207.699 59.522 207.555 59.654C207.417 59.78 207.237 59.843 207.015 59.843ZM211.024 65.108C210.568 65.108 210.163 65.012 209.809 64.82C209.461 64.622 209.188 64.349 208.99 64.001C208.798 63.647 208.702 63.239 208.702 62.777C208.702 62.303 208.798 61.886 208.99 61.526C209.188 61.16 209.461 60.875 209.809 60.671C210.157 60.461 210.562 60.356 211.024 60.356C211.474 60.356 211.867 60.455 212.203 60.653C212.539 60.851 212.8 61.118 212.986 61.454C213.172 61.79 213.265 62.171 213.265 62.597C213.265 62.657 213.265 62.726 213.265 62.804C213.265 62.876 213.259 62.951 213.247 63.029H209.566V62.291H212.041C212.023 61.997 211.918 61.766 211.726 61.598C211.54 61.43 211.306 61.346 211.024 61.346C210.82 61.346 210.631 61.394 210.457 61.49C210.283 61.58 210.145 61.721 210.043 61.913C209.947 62.105 209.899 62.348 209.899 62.642V62.903C209.899 63.149 209.944 63.365 210.034 63.551C210.13 63.731 210.262 63.872 210.43 63.974C210.598 64.07 210.793 64.118 211.015 64.118C211.237 64.118 211.42 64.07 211.564 63.974C211.714 63.878 211.825 63.755 211.897 63.605H213.139C213.055 63.887 212.914 64.142 212.716 64.37C212.518 64.598 212.275 64.778 211.987 64.91C211.699 65.042 211.378 65.108 211.024 65.108ZM214.26 65V60.464H215.331L215.421 61.202C215.559 60.95 215.754 60.746 216.006 60.59C216.264 60.434 216.57 60.356 216.924 60.356C217.302 60.356 217.62 60.434 217.878 60.59C218.136 60.746 218.331 60.974 218.463 61.274C218.601 61.574 218.67 61.943 218.67 62.381V65H217.464V62.498C217.464 62.138 217.386 61.862 217.23 61.67C217.08 61.478 216.846 61.382 216.528 61.382C216.324 61.382 216.141 61.43 215.979 61.526C215.823 61.622 215.7 61.76 215.61 61.94C215.52 62.114 215.475 62.327 215.475 62.579V65H214.26ZM221.858 65C221.54 65 221.261 64.952 221.021 64.856C220.787 64.754 220.604 64.589 220.472 64.361C220.34 64.127 220.274 63.809 220.274 63.407V61.481H219.5V60.464H220.274L220.409 59.231H221.489V60.464H222.686V61.481H221.489V63.425C221.489 63.629 221.534 63.77 221.624 63.848C221.714 63.926 221.867 63.965 222.083 63.965H222.677V65H221.858ZM225.238 65.108C224.86 65.108 224.548 65.048 224.302 64.928C224.056 64.802 223.873 64.637 223.753 64.433C223.639 64.223 223.582 63.992 223.582 63.74C223.582 63.464 223.651 63.221 223.789 63.011C223.933 62.801 224.146 62.636 224.428 62.516C224.716 62.396 225.076 62.336 225.508 62.336H226.633C226.633 62.114 226.603 61.931 226.543 61.787C226.483 61.637 226.39 61.526 226.264 61.454C226.138 61.382 225.97 61.346 225.76 61.346C225.532 61.346 225.337 61.397 225.175 61.499C225.019 61.595 224.923 61.745 224.887 61.949H223.708C223.738 61.625 223.843 61.346 224.023 61.112C224.209 60.872 224.452 60.686 224.752 60.554C225.058 60.422 225.397 60.356 225.769 60.356C226.195 60.356 226.564 60.428 226.876 60.572C227.188 60.716 227.428 60.923 227.596 61.193C227.764 61.463 227.848 61.796 227.848 62.192V65H226.822L226.687 64.307C226.621 64.427 226.543 64.535 226.453 64.631C226.363 64.727 226.258 64.811 226.138 64.883C226.018 64.955 225.883 65.009 225.733 65.045C225.583 65.087 225.418 65.108 225.238 65.108ZM225.526 64.172C225.682 64.172 225.82 64.145 225.94 64.091C226.066 64.031 226.174 63.953 226.264 63.857C226.354 63.755 226.423 63.641 226.471 63.515C226.525 63.383 226.561 63.242 226.579 63.092V63.083H225.652C225.466 63.083 225.313 63.107 225.193 63.155C225.079 63.197 224.995 63.26 224.941 63.344C224.887 63.428 224.86 63.524 224.86 63.632C224.86 63.752 224.887 63.851 224.941 63.929C224.995 64.007 225.073 64.067 225.175 64.109C225.277 64.151 225.394 64.172 225.526 64.172ZM228.982 65V58.52H230.197V65H228.982ZM231.93 65.045C231.702 65.045 231.519 64.979 231.381 64.847C231.243 64.709 231.174 64.541 231.174 64.343C231.174 64.145 231.243 63.98 231.381 63.848C231.519 63.71 231.702 63.641 231.93 63.641C232.146 63.641 232.323 63.71 232.461 63.848C232.599 63.98 232.668 64.145 232.668 64.343C232.668 64.541 232.599 64.709 232.461 64.847C232.323 64.979 232.146 65.045 231.93 65.045Z" fill="white"/>
<path d="M10 1H60V79H10C5.02944 79 1 74.9706 1 70V10C1 5.02944 5.02944 1 10 1Z" stroke="white" stroke-width="2"/>
<rect x="1" y="1" width="248" height="78" rx="9" stroke="white" stroke-width="2"/>
<path d="M60.5 48H248.5" stroke="white" stroke-width="2"/>
<g clip-path="url(#clip0_40000571_10166)">
<path d="M13.5131 56.6168C13.8554 56.0172 14.323 55.5492 14.9159 55.2147C15.5088 54.8796 16.1738 54.7124 16.9102 54.7124C17.7719 54.7124 18.5265 54.9335 19.1754 55.375C19.8236 55.8164 20.2765 56.4279 20.5341 57.208H18.7554C18.5783 56.84 18.3298 56.5637 18.0099 56.3797C17.6893 56.1956 17.3197 56.1033 16.8997 56.1033C16.4503 56.1033 16.0506 56.2082 15.7013 56.4181C15.3513 56.628 15.079 56.9247 14.8837 57.3074C14.6884 57.6901 14.5911 58.1393 14.5911 58.6549C14.5911 59.1705 14.6884 59.6099 14.8837 59.9968C15.079 60.383 15.3513 60.6818 15.7013 60.8909C16.0513 61.1008 16.451 61.2058 16.8997 61.2058C17.3197 61.2058 17.6893 61.112 18.0099 60.9245C18.3305 60.737 18.579 60.4593 18.7554 60.0906H20.5341C20.2765 60.8784 19.825 61.4912 19.181 61.9292C18.5363 62.3672 17.7796 62.5862 16.9109 62.5862C16.1745 62.5862 15.5095 62.419 14.9166 62.0838C14.3237 61.7487 13.8561 61.2834 13.5138 60.6867C13.1715 60.0906 13 59.4133 13 58.6549C13 57.8965 13.1715 57.2178 13.5138 56.6175L13.5131 56.6168Z" fill="white"/>
<path d="M22.965 56.4019V62.5195H21.418V56.4019H22.965Z" fill="white"/>
<path d="M24.0348 57.7981C24.2924 57.323 24.6494 56.955 25.1065 56.694C25.5629 56.4331 26.0858 56.3022 26.6752 56.3022C27.434 56.3022 28.0619 56.4918 28.5589 56.8711C29.0559 57.2503 29.3891 57.782 29.5585 58.4669H27.8904C27.8022 58.2018 27.6531 57.994 27.4431 57.8429C27.2331 57.6917 26.9734 57.6162 26.664 57.6162C26.2223 57.6162 25.8723 57.7764 25.6147 58.0968C25.3571 58.4173 25.2283 58.872 25.2283 59.4604C25.2283 60.0488 25.3571 60.4931 25.6147 60.8128C25.8723 61.1333 26.2223 61.2935 26.664 61.2935C27.2898 61.2935 27.6986 61.0136 27.8904 60.4546H29.5585C29.3891 61.1172 29.0538 61.6433 28.5533 62.0337C28.0521 62.4241 27.4263 62.6193 26.6752 62.6193C26.0858 62.6193 25.5629 62.4885 25.1065 62.2275C24.6494 61.9666 24.2924 61.5978 24.0348 61.1235C23.7772 60.6484 23.6484 60.095 23.6484 59.4618C23.6484 58.8287 23.7772 58.2745 24.0348 57.8002V57.7981Z" fill="white"/>
<path d="M31.8009 54.3477V62.5188H30.2539V54.3477H31.8009Z" fill="white"/>
<path d="M34.0134 62.2264C33.5423 61.9654 33.172 61.5953 32.9032 61.1168C32.6344 60.6382 32.5 60.0862 32.5 59.4607C32.5 58.8352 32.6379 58.2832 32.9144 57.8047C33.1909 57.3261 33.5682 56.956 34.047 56.695C34.5258 56.4341 35.0599 56.3032 35.6493 56.3032C36.2387 56.3032 36.7721 56.4341 37.2516 56.695C37.7304 56.9567 38.1077 57.3261 38.3842 57.8047C38.6607 58.2832 38.7986 58.8352 38.7986 59.4607C38.7986 60.0862 38.6565 60.6389 38.373 61.1168C38.0895 61.5953 37.7066 61.9654 37.2243 62.2264C36.742 62.4881 36.2023 62.6182 35.6059 62.6182C35.0095 62.6182 34.4859 62.4874 34.0148 62.2264H34.0134ZM36.3941 61.0671C36.6405 60.9307 36.8379 60.7264 36.9849 60.4542C37.1319 60.182 37.2061 59.8504 37.2061 59.4607C37.2061 58.8793 37.0528 58.4322 36.7476 58.1188C36.4417 57.8061 36.0679 57.6493 35.6262 57.6493C35.1845 57.6493 34.8142 57.8061 34.516 58.1188C34.2178 58.4315 34.0687 58.8793 34.0687 59.4607C34.0687 60.0421 34.2143 60.4899 34.5048 60.8026C34.796 61.1154 35.1621 61.2721 35.6038 61.2721C35.8838 61.2721 36.147 61.2042 36.3934 61.0678L36.3941 61.0671Z" fill="white"/>
<path d="M39.1289 55.8937V54.4692H41.7917V62.5193H40.2006V55.8937H39.1289Z" fill="white"/>
<path d="M48.0007 55.6393L45.0621 62.5189H43.4934L46.4544 55.8163H42.6758V54.4912H48.0007V55.6393Z" fill="white"/>
<path d="M23.5846 33.3235L28.1115 29.5265C29.4576 28.3973 31.6241 28.3833 32.9499 29.4957L41.8665 36.9742C43.1923 38.0859 43.1755 39.9029 41.8294 41.0321L38.2762 44.0119C33.8921 47.6892 26.8375 47.734 22.5192 44.1134L19.0199 41.1784C18.2646 40.5445 17.9461 39.6797 18.0616 38.8443C18.0791 38.7198 18.0301 38.596 17.9251 38.5078L14.6365 35.7148C14.4041 35.5203 14.0065 35.5728 13.8553 35.8212C12.2586 38.4448 12.9572 41.9347 15.5367 44.0987L19.036 47.0337C25.2478 52.2432 35.3971 52.1781 41.7048 46.8881L45.258 43.9084C48.5277 41.1665 48.5676 36.7538 45.3476 34.0539L36.431 26.5754C33.211 23.8748 27.9505 23.9084 24.6808 26.651L20.1539 30.4479C19.9614 30.6095 19.9593 30.8691 20.1483 31.0279L22.8916 33.3291C23.0813 33.4879 23.3907 33.4858 23.5825 33.3249L23.5846 33.3235Z" fill="white"/>
<path d="M15.6221 34.8237L24.5387 42.3022C27.7587 45.0028 33.0192 44.9692 36.2889 42.2266L40.8158 38.4297C41.0083 38.268 41.0104 38.0085 40.8214 37.8496L38.0781 35.5485C37.8884 35.3897 37.579 35.3918 37.3872 35.5527L32.8603 39.3497C31.5142 40.4789 29.3477 40.4929 28.0219 39.3805L19.1053 31.902C17.7795 30.7903 17.7963 28.9733 19.1424 27.8441L22.6508 24.9014C27.0601 21.2037 34.1539 21.1583 38.496 24.7999L41.9512 27.6978C42.7065 28.3317 43.025 29.1965 42.9095 30.0318C42.892 30.1564 42.941 30.2802 43.046 30.3684L46.378 33.2047C46.6104 33.3992 47.008 33.3467 47.1592 33.0984C48.7559 30.4747 48.0139 26.9415 45.4344 24.7775L41.9792 21.8796C35.7429 16.6498 25.5544 16.7148 19.2215 22.0258L15.7131 24.9685C12.4434 27.7104 12.4035 32.1231 15.6235 34.823L15.6221 34.8237Z" fill="white"/>
</g>
<defs>
<clipPath id="clip0_40000571_10166">
<rect width="35" height="44.6183" fill="white" transform="translate(13 18)"/>
</clipPath>
</defs>
</svg>
