<svg width="1374" height="1292" viewBox="0 0 1374 1292" fill="none" xmlns="http://www.w3.org/2000/svg">
<path d="M460.143 341.843C587.352 235.099 792.132 233.816 917.354 338.885L1267.26 632.478C1329.78 684.951 1360.53 753.928 1359.9 822.994C1359.27 892.065 1327.25 961.477 1263.72 1014.79L1124.3 1131.8C877.872 1338.58 481.24 1341.09 238.636 1137.51V1137.51L101.326 1022.3H101.325C1.07992 938.22 -25.811 802.784 35.958 701.214L35.9609 701.21C38.3523 697.265 42.8318 694.695 47.918 694.006C52.839 693.341 57.9632 694.493 61.7432 697.474L62.1045 697.769L191.138 807.388L191.147 807.396C194.525 810.241 195.977 814.104 195.447 817.917V817.919C190.849 851.244 203.299 885.656 232.688 911.034L234.101 912.236L371.41 1027.44C541.962 1170.57 820.418 1168.73 993.537 1023.46H993.538L1132.96 906.455C1159.99 883.764 1173.81 854.044 1174.08 824.273C1174.36 794.496 1161.07 764.919 1134.42 742.547L784.509 448.952C731.343 404.333 644.739 404.919 590.806 450.177L413.167 599.251L412.324 599.958C405.827 604.65 395.98 604.45 389.957 599.422H389.958L282.298 509.072L282.293 509.067C279.219 506.498 277.818 503.23 277.848 500.062C277.877 496.888 279.346 493.563 282.501 490.92L282.502 490.918L460.143 341.843Z" stroke="white" stroke-opacity="0.1" stroke-width="6"/>
<path d="M245.973 160.375C493.355 -47.2263 891.553 -49.734 1135.11 154.628L1270.68 268.407L1270.68 268.408C1370.95 352.511 1399.51 489.65 1337.75 591.196L1337.75 591.2C1335.36 595.145 1330.88 597.716 1325.79 598.404C1320.72 599.091 1315.43 597.845 1311.62 594.654L1180.88 483.325L1180.87 483.316L1180.55 483.046C1177.4 480.225 1176.05 476.484 1176.56 472.791V472.789C1181.16 439.464 1168.71 405.051 1139.32 379.674L1137.91 378.473L1002.33 264.695C830.796 120.749 550.81 122.595 376.707 268.674L239.021 384.187C211.981 406.876 198.165 436.596 197.893 466.368C197.62 496.145 210.902 525.722 237.56 548.094L587.465 841.689C640.634 886.308 727.238 885.722 781.169 840.464L958.81 691.392C965.266 685.981 975.781 685.951 982.092 691.224V691.223L1089.75 781.57L1089.75 781.574C1092.83 784.143 1094.23 787.412 1094.2 790.58C1094.17 793.755 1092.7 797.079 1089.54 799.723L1089.54 799.724L911.901 948.797C784.692 1055.54 579.912 1056.83 454.69 951.756L104.786 658.163L102.757 656.461L102.732 656.482C41.5718 604.228 11.4853 535.998 12.1074 467.681C12.7365 398.609 44.7587 329.198 108.289 275.889L108.288 275.888L245.973 160.376V160.375Z" stroke="white" stroke-opacity="0.1" stroke-width="6"/>
</svg>
