<svg width="101" height="23" viewBox="0 0 101 23" fill="none" xmlns="http://www.w3.org/2000/svg">
<g clip-path="url(#clip0_40000639_1470)">
<mask id="mask0_40000639_1470" style="mask-type:luminance" maskUnits="userSpaceOnUse" x="0" y="0" width="101" height="22">
<path d="M100.586 0H0V21.8767H100.586V0Z" fill="white"/>
</mask>
<g mask="url(#mask0_40000639_1470)">
<path d="M6.94457 10.064L9.91647 7.56994C10.8006 6.82806 12.2222 6.81898 13.0926 7.54944L18.9466 12.4613C19.817 13.1918 19.8062 14.3847 18.9221 15.1266L16.5897 17.0841C13.7116 19.4991 9.08024 19.5293 6.24598 17.1507L3.94876 15.2233C3.45268 14.8074 3.24389 14.2391 3.31956 13.6907C3.33094 13.6087 3.29908 13.5274 3.23024 13.4694L1.07128 11.6353C0.918813 11.5073 0.657686 11.542 0.5587 11.7053C-0.489209 13.4284 -0.030678 15.7211 1.66293 17.1416L3.96013 19.069C8.038 22.491 14.7009 22.4483 18.8419 18.9734L21.1744 17.0159C23.3209 15.2147 23.347 12.3168 21.2336 10.543L15.3796 5.63112C13.2656 3.8573 9.81239 3.87948 7.66595 5.68061L4.69402 8.17464C4.56772 8.28048 4.56601 8.45116 4.6906 8.55524L6.49175 10.0668C6.61633 10.1709 6.8194 10.1698 6.94568 10.064H6.94457Z" fill="#D6F47A"/>
<path d="M1.72095 11.0496L7.57488 15.9614C9.68893 17.7352 13.1421 17.713 15.2886 15.9119L18.2605 13.4179C18.3868 13.312 18.3885 13.1413 18.2639 13.0373L16.4628 11.5257C16.3382 11.4216 16.1351 11.4227 16.0088 11.5286L13.0369 14.0226C12.1528 14.7644 10.7312 14.7735 9.86073 14.0431L4.00678 9.1312C3.13637 8.40074 3.14718 7.20774 4.03124 6.46592L6.33473 4.53338C9.22926 2.10476 13.8862 2.0746 16.737 4.46682L19.0052 6.37033C19.5013 6.78619 19.7101 7.35452 19.6344 7.90293C19.623 7.98488 19.6549 8.06623 19.7237 8.12428L21.9111 9.98682C22.0636 10.1149 22.3247 10.0801 22.4237 9.91683C23.4716 8.19369 22.9846 5.87258 21.291 4.45203L19.0228 2.54849C14.9291 -0.88651 8.23997 -0.84384 4.08302 2.64464L1.77955 4.57718C-0.366899 6.37829 -0.393069 9.27628 1.72038 11.0501L1.72095 11.0496Z" fill="#D6F47A"/>
<path d="M29.2922 6.87447C30.0003 5.63333 30.9673 4.66711 32.1931 3.97362C33.4189 3.28086 34.7927 2.93448 36.3161 2.93448C38.0976 2.93448 39.6581 3.39097 40.9984 4.30468C42.338 5.2184 43.2743 6.48215 43.8081 8.09594H40.1307C39.7653 7.33461 39.2512 6.76365 38.5891 6.38299C37.9269 6.00233 37.1612 5.81199 36.2935 5.81199C35.3645 5.81199 34.5382 6.02927 33.8156 6.46318C33.0922 6.89708 32.5285 7.51033 32.1252 8.30159C31.722 9.09348 31.52 10.0225 31.52 11.0879C31.52 12.1533 31.722 13.0634 32.1252 13.8633C32.5285 14.6626 33.0922 15.2795 33.8156 15.7134C34.5389 16.1473 35.3645 16.3646 36.2935 16.3646C37.1612 16.3646 37.9269 16.1706 38.5891 15.7819C39.2512 15.3932 39.7653 14.8193 40.1307 14.0573H43.8081C43.2751 15.6871 42.3424 16.9545 41.0101 17.8602C39.6778 18.7666 38.1129 19.2195 36.3161 19.2195C34.7934 19.2195 33.4189 18.8731 32.1931 18.1803C30.9673 17.4876 30.0003 16.5243 29.2922 15.2911C28.5841 14.0581 28.2305 12.6572 28.2305 11.0886C28.2305 9.52007 28.5841 8.11562 29.2922 6.87447Z" fill="#D6F47A"/>
<path d="M48.8305 6.42896V19.0825H45.6328V6.42896H48.8305Z" fill="#D6F47A"/>
<path d="M51.0453 9.31793C51.5784 8.33567 52.3163 7.57435 53.2607 7.03402C54.2043 6.49363 55.2858 6.22308 56.5043 6.22308C58.0721 6.22308 59.3707 6.6154 60.3986 7.39933C61.426 8.18397 62.1148 9.28366 62.4656 10.6998H59.0163C58.8336 10.1514 58.5257 9.7219 58.0911 9.40907C57.6572 9.09694 57.1205 8.9409 56.4809 8.9409C55.5672 8.9409 54.8438 9.27195 54.3108 9.93411C53.7777 10.5963 53.5116 11.5369 53.5116 12.7547C53.5116 13.9726 53.7777 14.8906 54.3108 15.5528C54.8438 16.2149 55.5672 16.546 56.4809 16.546C57.7753 16.546 58.6204 15.9677 59.0163 14.8104H62.4656C62.1148 16.1806 61.4219 17.2694 60.3875 18.0766C59.3519 18.8838 58.0575 19.2871 56.5043 19.2871C55.2858 19.2871 54.2051 19.0166 53.2607 18.4762C52.3163 17.9359 51.5776 17.1746 51.0453 16.1923C50.5122 15.21 50.2461 14.0645 50.2461 12.7547C50.2461 11.445 50.5122 10.2994 51.0453 9.31717V9.31793Z" fill="#D6F47A"/>
<path d="M67.1037 2.18042V19.0823H63.9062V2.18042H67.1037Z" fill="#D6F47A"/>
<path d="M71.6719 18.4769C70.6973 17.9366 69.9323 17.1717 69.3765 16.1814C68.82 15.1918 68.543 14.0499 68.543 12.7555C68.543 11.4611 68.8288 10.3192 69.3999 9.32958C69.971 8.34001 70.7511 7.57505 71.7404 7.03402C72.7303 6.49363 73.8344 6.22308 75.0527 6.22308C76.2716 6.22308 77.3745 6.49363 78.365 7.03402C79.3543 7.57435 80.135 8.34001 80.7055 9.32958C81.2766 10.3199 81.5624 11.4619 81.5624 12.7555C81.5624 14.0491 81.2696 15.1918 80.6833 16.1814C80.0969 17.1717 79.3051 17.9366 78.3082 18.4769C77.3107 19.0173 76.1954 19.2879 74.9619 19.2879C73.7278 19.2879 72.6471 19.0173 71.6731 18.4769H71.6719ZM76.5943 16.0785C77.1039 15.7971 77.5116 15.3741 77.8167 14.8111C78.1207 14.2482 78.273 13.5627 78.273 12.7555C78.273 11.553 77.9567 10.6276 77.3253 9.98003C76.6927 9.33322 75.9207 9.00943 75.007 9.00943C74.0933 9.00943 73.3283 9.33322 72.711 9.98003C72.0942 10.6276 71.7861 11.5522 71.7861 12.7555C71.7861 13.9587 72.0866 14.8834 72.6881 15.5309C73.2897 16.1784 74.047 16.5015 74.9607 16.5015C75.5394 16.5015 76.0842 16.3608 76.5943 16.0793V16.0785Z" fill="#D6F47A"/>
<path d="M82.2461 5.37804V2.43124H87.7507V19.0824H84.4619V5.37804H82.2467H82.2461Z" fill="#D6F47A"/>
<path d="M100.588 4.85311L94.5117 19.0832H91.2685L97.3893 5.21918H89.5781V2.47803H100.587V4.85311H100.588Z" fill="#D6F47A"/>
</g>
</g>
<defs>
<clipPath id="clip0_40000639_1470">
<rect width="100.744" height="22.2575" fill="white"/>
</clipPath>
</defs>
</svg>
