<svg width="23" height="22" viewBox="0 0 23 22" fill="none" xmlns="http://www.w3.org/2000/svg">
<path d="M1.72095 11.0496L7.57488 15.9614C9.68893 17.7352 13.1421 17.713 15.2886 15.9119L18.2605 13.4179C18.3868 13.312 18.3885 13.1413 18.2639 13.0373L16.4628 11.5257C16.3382 11.4216 16.1351 11.4227 16.0088 11.5286L13.0369 14.0226C12.1528 14.7644 10.7312 14.7735 9.86073 14.0431L4.00678 9.1312C3.13637 8.40074 3.14718 7.20774 4.03124 6.46592L6.33473 4.53338C9.22926 2.10476 13.8862 2.0746 16.737 4.46682L19.0052 6.37033C19.5013 6.78619 19.7101 7.35452 19.6344 7.90293C19.623 7.98488 19.6549 8.06623 19.7237 8.12428L21.9111 9.98682C22.0636 10.1149 22.3247 10.0801 22.4237 9.91683C23.4716 8.19369 22.9846 5.87258 21.291 4.45203L19.0228 2.54849C14.9291 -0.88651 8.23997 -0.84384 4.08302 2.64464L1.77955 4.57718C-0.366899 6.37829 -0.392501 9.27575 1.72095 11.0496Z" fill="#D6F47A"/>
<path d="M6.94457 10.064L9.91647 7.56994C10.8006 6.82806 12.2222 6.81898 13.0926 7.54944L18.9466 12.4613C19.817 13.1918 19.8062 14.3847 18.9221 15.1266L16.5897 17.0841C13.7116 19.4991 9.08024 19.5293 6.24598 17.1507L3.94876 15.2233C3.45268 14.8074 3.24389 14.2391 3.31956 13.6907C3.33094 13.6087 3.29908 13.5274 3.23024 13.4694L1.07128 11.6353C0.918813 11.5073 0.657686 11.542 0.5587 11.7053C-0.489209 13.4284 -0.030678 15.7211 1.66293 17.1416L3.96013 19.069C8.038 22.491 14.7009 22.4483 18.8419 18.9734L21.1744 17.0159C23.3209 15.2147 23.347 12.3168 21.2336 10.543L15.3796 5.63112C13.2656 3.8573 9.81239 3.87948 7.66595 5.68061L4.69402 8.17464C4.56772 8.28048 4.56601 8.45116 4.6906 8.55524L6.49175 10.0668C6.61633 10.1709 6.8194 10.1698 6.94568 10.064H6.94457Z" fill="#D6F47A"/>
</svg>
